<?xml version="1.0" standalone="no"?>
<!DOCTYPE svg PUBLIC "-//W3C//DTD SVG 20010904//EN"
 "http://www.w3.org/TR/2001/REC-SVG-20010904/DTD/svg10.dtd">
<svg version="1.0" xmlns="http://www.w3.org/2000/svg"
 width="800.000000pt" height="491.000000pt" viewBox="0 0 800.000000 491.000000"
 preserveAspectRatio="xMidYMid meet">

<g transform="translate(0.000000,491.000000) scale(0.100000,-0.100000)"
fill="#000000" stroke="none">
<path d="M3505 4195 c-33 -26 -62 -52 -64 -58 -2 -7 -18 -30 -36 -52 -50 -64
-112 -165 -143 -235 -39 -87 -108 -330 -129 -458 l-16 -103 -41 -18 c-23 -10
-50 -28 -60 -40 -19 -21 -19 -21 3 -21 27 0 91 -26 91 -37 0 -4 -13 -23 -28
-41 l-27 -32 -55 33 c-30 18 -89 51 -130 73 -41 22 -98 55 -126 72 -28 18 -57
32 -64 32 -12 0 -237 127 -332 187 -21 12 -42 23 -47 23 -11 0 -82 41 -181
105 -123 79 -175 111 -201 122 -24 10 -27 17 -31 89 -6 92 -24 114 -92 114
-56 -1 -104 -26 -153 -80 -129 -142 -164 -310 -82 -383 36 -33 70 -32 118 4
38 28 77 22 153 -23 197 -115 265 -154 281 -160 18 -8 160 -95 275 -170 31
-20 63 -37 70 -37 12 -1 91 -49 102 -62 8 -10 219 -142 274 -171 28 -16 63
-38 78 -50 25 -22 27 -26 18 -73 -4 -27 -11 -76 -14 -109 l-5 -59 50 52 c28
28 55 51 59 51 5 0 11 -26 15 -57 16 -146 48 -274 106 -420 7 -18 11 -34 9
-36 -18 -16 -267 -137 -280 -137 -10 0 -44 17 -76 39 -33 21 -106 68 -164 104
l-105 65 -3 -197 -2 -197 -36 -17 c-19 -9 -39 -17 -45 -17 -11 0 -295 -160
-341 -191 -14 -11 -32 -19 -40 -19 -13 0 -87 -43 -258 -150 -52 -33 -99 -60
-103 -60 -11 0 -117 -82 -144 -111 -48 -52 -46 -185 4 -281 78 -151 128 -218
198 -264 78 -52 125 -55 211 -15 36 17 71 31 77 31 11 0 58 27 222 125 44 27
107 63 140 80 33 17 83 46 112 64 51 31 53 32 79 15 22 -15 55 -18 218 -20
105 -1 197 -3 204 -3 9 -1 12 -39 12 -156 l0 -155 665 0 c595 0 665 2 665 16
0 14 2 14 22 0 19 -14 69 -16 339 -16 388 0 354 -17 354 179 l0 136 183 2
c190 1 184 0 246 47 11 8 75 -27 158 -85 15 -10 31 -19 37 -19 11 0 181 -99
197 -114 11 -12 133 -74 246 -127 92 -43 143 -38 219 18 30 22 66 54 80 69 37
40 115 164 121 194 36 154 37 164 26 214 -13 63 -77 128 -173 176 -37 18 -72
38 -78 45 -7 6 -57 37 -112 70 -55 32 -111 66 -124 77 -13 10 -29 18 -37 18
-7 0 -50 22 -96 49 -119 71 -247 140 -366 196 -96 46 -102 51 -97 75 3 14 25
93 49 175 24 83 42 152 40 154 -5 5 -134 -60 -150 -76 -6 -7 -61 -40 -122 -73
l-110 -61 -140 72 -141 72 18 36 c35 68 76 253 88 391 6 66 7 70 27 65 12 -4
40 -27 64 -52 l42 -45 0 34 c0 18 -5 62 -10 98 -9 61 -8 66 13 83 12 10 31 25
41 34 10 8 48 30 83 49 36 18 86 49 112 67 49 36 239 157 246 157 6 0 200 117
255 155 30 20 78 48 107 60 29 13 72 37 95 53 74 50 247 142 268 142 11 0 43
-12 70 -26 62 -32 90 -27 120 23 55 93 5 271 -105 372 -53 49 -99 71 -150 71
-35 0 -74 -27 -76 -52 -4 -62 -10 -115 -14 -126 -2 -7 -20 -19 -39 -27 -18 -8
-47 -25 -62 -38 -16 -13 -74 -50 -129 -82 -55 -32 -102 -61 -105 -64 -11 -14
-60 -41 -72 -41 -8 0 -63 -30 -123 -66 -61 -37 -166 -96 -235 -131 -146 -76
-221 -118 -270 -148 -60 -38 -138 -75 -158 -75 -11 0 -24 14 -35 37 -20 44
-11 59 39 69 19 3 34 10 34 14 0 9 -76 60 -89 60 -10 0 -13 14 -31 120 -19
113 -69 288 -111 388 -23 53 -46 111 -53 127 -26 70 -95 165 -174 243 -47 45
-89 82 -94 82 -4 0 -8 -9 -8 -21 0 -12 -7 -37 -16 -57 -45 -103 -87 -184 -108
-209 -13 -16 -33 -46 -45 -68 -12 -22 -34 -54 -49 -72 l-27 -32 -55 14 c-70
19 -267 19 -337 1 l-53 -14 -29 33 c-16 18 -44 55 -62 82 -18 26 -39 54 -46
61 -7 7 -13 20 -13 29 0 9 -9 30 -19 47 -16 26 -35 70 -79 189 -6 16 -15 12
-67 -28z m45 -142 c14 -66 77 -231 118 -313 l28 -55 80 -5 79 -5 -78 -9 c-78
-8 -107 -1 -107 28 0 7 -10 23 -22 36 -25 26 -98 199 -119 278 l-13 54 -38
-44 c-20 -23 -38 -38 -38 -32 0 13 80 124 90 124 4 0 13 -26 20 -57z m-1706
-159 c3 -9 6 -40 6 -70 0 -41 5 -59 20 -74 l21 -21 -29 -37 c-16 -20 -43 -64
-60 -98 -29 -58 -32 -60 -65 -56 -22 2 -49 -4 -75 -17 -50 -26 -64 -26 -85 -3
-26 29 -31 85 -12 147 23 82 95 189 150 225 38 25 120 28 129 4z m4568 -17
c24 -18 65 -65 92 -105 48 -69 50 -75 54 -154 4 -75 2 -85 -17 -102 -22 -20
-23 -20 -69 -1 -26 11 -68 19 -94 20 -39 0 -48 3 -48 18 0 23 -24 70 -66 130
-34 47 -34 47 -14 67 15 15 20 33 20 74 0 78 5 86 55 86 34 0 53 -7 87 -33z
m-2327 -807 c49 -361 45 -349 167 -437 143 -104 162 -112 116 -51 -13 18 -37
57 -52 87 l-28 54 24 -7 c45 -13 141 -20 135 -9 -4 6 -22 14 -42 17 -37 7 -58
26 -28 26 35 1 101 38 128 74 16 20 33 60 40 89 10 48 16 55 66 85 51 32 52
33 19 27 -114 -23 -269 -118 -321 -197 -16 -24 -34 -43 -41 -43 -7 0 -21 18
-31 39 -31 65 -40 147 -32 293 7 131 16 154 30 73 10 -61 19 -67 58 -40 19 13
46 43 61 67 16 24 30 43 32 43 2 0 17 -30 34 -66 16 -36 43 -83 60 -105 l32
-39 106 0 107 -1 -30 -21 c-16 -12 -44 -36 -61 -53 l-32 -31 14 -64 c16 -76
18 -152 5 -198 -5 -17 -8 -32 -5 -32 12 0 59 50 83 90 25 42 36 65 61 133 l10
28 36 -33 c21 -18 54 -60 76 -92 35 -55 38 -64 38 -130 0 -39 -5 -91 -11 -116
-12 -54 -60 -172 -67 -165 -3 3 -7 22 -9 43 -4 50 -33 161 -44 168 -5 3 -9
-12 -9 -32 0 -79 -111 -375 -150 -399 -4 -2 -10 16 -14 41 -3 24 -11 54 -17
66 -11 21 -12 21 -24 -8 -6 -16 -15 -44 -18 -61 -9 -47 -75 -178 -137 -272
-30 -44 -55 -79 -57 -77 -2 1 2 17 8 35 17 48 4 48 -27 2 -15 -23 -55 -62 -91
-87 -63 -45 -63 -45 -168 -51 -79 -5 -105 -9 -105 -20 0 -17 -15 -17 -34 2 -8
8 -21 15 -28 15 -18 0 -147 97 -186 140 -32 36 -40 31 -22 -16 10 -24 9 -26
-5 -14 -9 7 -24 30 -34 49 -10 20 -36 68 -59 108 -23 39 -58 111 -78 160 -20
48 -39 92 -44 96 -8 9 -25 -30 -36 -83 l-7 -34 -43 90 c-24 49 -61 149 -81
222 -21 72 -40 126 -44 119 -8 -15 -37 -151 -41 -192 -5 -51 -68 155 -75 244
-5 74 -4 79 31 147 20 38 55 86 79 107 l42 37 12 -40 c16 -54 67 -147 104
-190 27 -31 29 -32 23 -10 -11 39 -8 175 6 224 11 41 11 47 -9 73 -12 15 -38
38 -57 52 -19 13 -34 27 -34 30 0 3 47 5 104 3 l104 -3 30 32 c31 34 66 103
77 153 l6 29 43 -49 c47 -53 101 -90 110 -75 3 5 12 35 20 68 l13 58 8 -87 c4
-48 5 -133 3 -190 -3 -86 -8 -113 -31 -162 l-27 -59 -34 48 c-40 56 -108 112
-186 154 -55 29 -160 65 -168 57 -2 -2 21 -20 52 -40 49 -31 56 -40 56 -67 0
-62 85 -156 155 -171 21 -5 16 -8 -50 -34 -34 -14 42 -17 93 -4 24 6 47 8 50
5 3 -3 -20 -42 -50 -87 -31 -46 -55 -85 -53 -87 7 -6 158 96 194 131 66 65 81
120 131 477 17 117 31 216 31 220 2 8 14 -76 44 -299z m-735 -1000 c47 -99
121 -235 138 -253 15 -17 14 -18 -29 -11 -24 3 -60 10 -79 15 -19 5 -53 9 -75
9 -28 0 -44 6 -52 19 -6 10 -53 35 -105 55 -110 43 -220 98 -221 112 0 5 10
11 24 14 13 3 66 27 117 53 51 27 99 47 105 44 7 -3 21 -22 32 -43 20 -38 55
-83 65 -84 3 0 6 22 7 50 1 27 7 66 14 87 12 37 12 37 22 13 6 -14 22 -50 37
-80z m1447 -7 l6 -62 22 17 c13 9 38 42 56 72 17 30 33 56 34 58 1 1 59 -27
127 -62 l126 -65 -82 -40 c-154 -77 -474 -186 -492 -169 -3 4 12 32 34 65 47
69 128 226 138 267 l7 30 9 -25 c5 -13 12 -52 15 -86z m-2135 6 l68 -41 2
-237 c1 -130 1 -301 0 -381 0 -80 2 -151 6 -156 4 -6 22 -14 40 -17 l32 -7 0
375 c0 206 2 375 5 375 3 0 37 -16 75 -35 l70 -35 2 -203 c1 -111 2 -265 2
-342 l1 -140 35 -5 35 -5 5 326 5 326 70 -28 70 -28 8 -248 c13 -403 7 -451
-57 -473 -44 -15 -465 -13 -496 3 -14 7 -33 28 -42 47 -16 32 -18 77 -18 503
0 257 3 467 7 467 4 0 37 -19 75 -41z m2798 -48 c-11 -35 -20 -72 -20 -83 0
-15 -25 -31 -110 -71 l-110 -51 0 -108 c0 -59 3 -108 7 -108 4 0 51 14 104 32
85 28 99 30 111 17 35 -34 38 -58 38 -265 0 -189 -2 -212 -20 -250 -14 -28
-29 -44 -47 -49 -14 -3 -100 -5 -190 -4 l-164 2 6 26 c4 14 15 44 25 67 22 46
25 48 163 60 l77 6 1 97 c1 100 0 123 -7 130 -3 3 -47 -5 -99 -18 -151 -36
-158 -29 -163 184 -4 163 4 219 41 259 24 27 210 136 231 136 7 0 41 18 77 39
39 24 65 34 67 27 1 -6 -7 -40 -18 -75z m-460 -172 c0 -7 -10 -38 -21 -71
l-22 -58 -91 -28 -91 -28 -3 -86 -3 -86 63 14 c104 22 101 24 74 -48 l-23 -63
-56 -9 -57 -8 0 -90 0 -89 115 7 c131 8 128 10 93 -73 l-22 -53 -168 0 -168 0
0 329 0 329 110 36 c60 20 115 36 122 36 8 0 41 11 73 24 71 29 75 29 75 15z
m547 -15 c93 -42 323 -163 346 -183 7 -5 56 -32 108 -59 52 -26 144 -79 204
-117 61 -37 124 -75 140 -83 49 -25 148 -93 183 -125 30 -29 32 -35 32 -97 0
-84 -18 -143 -69 -229 -78 -132 -169 -211 -242 -211 -37 0 -90 15 -134 38 -68
35 -193 106 -240 136 -27 18 -85 50 -127 71 -43 20 -78 40 -78 44 0 3 -32 24
-70 46 -52 30 -68 44 -63 55 13 26 15 455 3 501 -13 49 -55 95 -95 105 -24 6
-85 -8 -152 -33 -9 -4 -13 8 -13 40 0 45 0 45 48 62 26 9 67 27 92 40 57 30
58 30 127 -1z m-3027 -349 c0 -267 3 -332 15 -362 8 -19 15 -37 15 -38 0 -3
-174 -106 -290 -170 -47 -27 -107 -62 -135 -79 -60 -38 -147 -80 -196 -95
-104 -32 -197 20 -275 156 -118 202 -130 314 -43 385 22 18 52 43 67 56 15 12
47 32 72 44 25 12 75 40 111 63 72 46 258 155 265 155 2 0 46 23 96 52 247
138 284 158 291 158 4 0 7 -146 7 -325z m891 261 c24 -8 80 -22 124 -32 59
-13 87 -24 107 -45 l28 -27 0 -255 c0 -329 19 -302 -205 -302 l-167 0 -24 28
-24 28 0 296 c0 268 2 298 17 316 20 21 65 19 144 -7z m1152 -63 c-6 -40 -109
-411 -145 -523 -12 -36 -26 -68 -32 -72 -19 -13 -123 -9 -133 5 -5 6 -29 73
-53 147 -23 74 -53 167 -66 207 -13 39 -24 80 -24 90 0 11 -7 41 -16 67 -9 26
-15 48 -13 50 2 2 36 6 74 9 l71 7 26 -88 c15 -48 33 -107 39 -132 7 -25 16
-49 21 -55 4 -5 8 -18 9 -30 0 -11 7 3 15 30 8 28 31 107 51 176 l37 127 50
10 c94 18 95 17 89 -25z m-705 -19 l22 -4 0 -240 0 -240 115 0 c63 0 115 -3
115 -7 0 -5 -11 -26 -23 -48 l-23 -40 -167 -2 c-92 -1 -167 1 -168 5 0 4 -2
21 -4 37 -2 17 -1 148 2 292 l6 262 51 -5 c28 -3 61 -7 74 -10z"/>
<path d="M3935 2320 c-48 -12 -101 -38 -115 -55 -13 -15 -10 -17 25 -14 37 4
40 2 43 -23 4 -30 46 -69 95 -87 25 -10 27 -15 27 -63 0 -82 -7 -99 -39 -92
-23 6 -72 25 -141 57 -33 16 -144 127 -161 162 -8 16 -20 30 -26 33 -13 4 26
-91 56 -137 24 -38 140 -129 205 -161 180 -90 411 22 530 257 28 57 15 63 -21
10 -12 -17 -51 -62 -85 -98 -53 -55 -75 -69 -136 -92 -102 -38 -108 -37 -116
19 -11 81 -8 94 20 104 48 19 84 51 92 83 8 30 11 32 50 29 23 -1 42 -1 42 2
0 11 -76 49 -123 62 -56 15 -173 17 -222 4z"/>
<path d="M3400 1411 l0 -221 60 0 60 0 0 209 0 208 -32 7 c-18 3 -45 9 -60 12
l-28 6 0 -221z"/>
</g>
</svg>
