<?xml version="1.0" standalone="no"?>
<!DOCTYPE svg PUBLIC "-//W3C//DTD SVG 20010904//EN"
 "http://www.w3.org/TR/2001/REC-SVG-20010904/DTD/svg10.dtd">
<svg version="1.0" xmlns="http://www.w3.org/2000/svg"
 width="626.000000pt" height="626.000000pt" viewBox="0 0 626.000000 626.000000"
 preserveAspectRatio="xMidYMid meet">

<g transform="translate(0.000000,626.000000) scale(0.100000,-0.100000)"
fill="#000000" stroke="none">
<path d="M3073 5812 c-7 -4 -33 -51 -58 -105 -30 -65 -53 -101 -68 -107 -12
-5 -60 -14 -107 -20 -109 -14 -120 -18 -120 -38 0 -9 36 -50 80 -91 51 -47 80
-81 80 -95 0 -11 -7 -67 -17 -124 -23 -137 -20 -138 117 -65 l104 56 106 -56
c68 -36 110 -53 119 -48 11 7 10 29 -7 127 l-21 119 85 84 c48 48 83 91 82
100 -2 12 -32 20 -121 32 -65 10 -120 19 -122 21 -1 1 -26 49 -54 105 -53 107
-60 116 -78 105z m66 -125 c26 -57 55 -106 63 -109 8 -4 60 -12 114 -19 54 -7
101 -14 103 -16 3 -2 -33 -41 -78 -87 l-84 -84 20 -114 c11 -62 19 -115 17
-117 -2 -2 -50 21 -107 52 l-104 55 -103 -54 c-58 -29 -106 -52 -107 -50 -2 2
5 54 17 117 l20 113 -85 86 -86 86 98 13 c152 19 139 11 194 127 27 57 51 104
54 104 3 0 27 -47 54 -103z"/>
<path d="M3806 5711 l-55 -108 -120 -18 c-96 -14 -121 -21 -121 -34 0 -9 37
-53 82 -98 l82 -83 -17 -102 c-21 -128 -22 -148 -1 -148 9 0 60 24 114 53 l98
52 111 -55 c79 -39 114 -51 122 -43 7 7 5 43 -10 124 l-21 114 86 86 c55 55
85 93 81 102 -3 8 -23 17 -44 20 -21 3 -75 11 -119 17 l-82 12 -52 109 c-30
63 -57 109 -66 109 -8 0 -37 -47 -68 -109z m128 -29 l50 -101 65 -10 c36 -6
90 -14 119 -18 l53 -8 -85 -84 c-47 -46 -86 -91 -86 -100 0 -9 9 -62 19 -118
10 -57 17 -103 14 -103 -2 0 -51 25 -108 56 l-105 56 -105 -56 c-62 -33 -105
-51 -105 -44 0 7 9 60 20 118 l19 105 -86 86 -85 86 34 6 c18 4 72 12 119 18
l86 12 52 104 c28 57 55 102 59 99 4 -2 29 -49 56 -104z"/>
<path d="M4591 5712 l-54 -109 -96 -12 c-127 -16 -141 -20 -141 -39 0 -9 37
-53 81 -98 l82 -82 -19 -116 c-13 -85 -15 -119 -7 -127 9 -9 40 4 118 45 l106
57 109 -58 c74 -39 113 -54 119 -48 7 7 4 49 -10 130 l-20 120 85 83 c47 46
86 87 86 92 0 16 -22 23 -134 39 l-111 16 -52 108 c-38 77 -58 107 -71 107
-13 0 -33 -30 -71 -108z m278 -141 c149 -19 145 -11 50 -107 l-83 -83 18 -112
c10 -61 15 -113 12 -116 -2 -3 -50 19 -106 48 l-102 54 -100 -53 c-55 -29
-102 -51 -104 -49 -3 3 4 55 14 116 l19 111 -84 82 c-56 56 -79 84 -71 89 7 4
56 12 109 19 53 7 101 15 107 19 5 3 34 53 63 110 l53 103 54 -109 55 -110 96
-12z"/>
<path d="M1440 5701 l-53 -109 -81 -12 c-44 -6 -98 -14 -119 -17 -21 -3 -41
-12 -44 -20 -4 -9 26 -47 80 -101 l85 -87 -19 -114 c-14 -80 -17 -117 -9 -125
7 -7 43 6 120 44 l109 54 99 -52 c55 -29 107 -52 116 -52 20 0 20 10 -1 143
l-17 108 83 83 c54 54 82 90 78 99 -4 10 -33 18 -89 26 -163 23 -142 10 -204
132 -30 60 -60 109 -68 109 -7 0 -37 -49 -66 -109z m121 -23 c28 -57 52 -104
54 -106 1 -1 54 -10 119 -19 l117 -16 -86 -87 -86 -86 21 -114 c11 -62 20
-115 20 -117 0 -2 -49 21 -109 52 l-109 56 -105 -56 c-82 -44 -105 -52 -102
-38 2 10 11 64 20 120 l17 101 -81 77 c-45 43 -81 81 -81 85 0 8 22 13 149 31
l83 12 50 103 c28 57 52 104 54 104 2 0 27 -46 55 -102z"/>
<path d="M2226 5702 l-55 -109 -88 -12 c-145 -20 -153 -22 -153 -41 0 -9 38
-54 84 -98 l84 -81 -20 -116 c-16 -89 -18 -119 -9 -128 9 -9 37 2 119 45 l107
57 108 -57 c82 -43 110 -53 119 -44 9 9 7 38 -8 127 l-20 115 83 82 c46 45 83
90 83 99 0 18 -50 30 -183 45 l-58 7 -55 108 c-32 65 -60 109 -69 109 -9 0
-37 -44 -69 -108z m263 -141 c47 -7 101 -14 119 -18 l34 -6 -87 -87 -86 -87
19 -109 c11 -60 18 -111 16 -113 -3 -3 -50 19 -107 49 l-102 53 -104 -52 c-57
-29 -104 -51 -106 -49 -2 2 6 55 17 118 l20 115 -88 82 -87 81 34 7 c19 3 72
12 119 18 l85 12 55 107 55 108 54 -109 54 -108 86 -12z"/>
<path d="M3089 5026 c-20 -7 -51 -23 -69 -36 -35 -25 -90 -96 -90 -117 0 -10
-18 -13 -72 -13 -80 0 -94 -5 -99 -35 -4 -19 -13 -20 -234 -23 l-230 -3 -30
-30 -30 -29 -3 -1170 c-2 -1013 0 -1175 13 -1205 27 -65 25 -65 582 -65 l498
0 54 -98 c126 -225 116 -203 93 -209 -32 -8 -35 -32 -10 -92 12 -30 18 -56 12
-58 -36 -13 -59 -32 -62 -51 -2 -12 31 -113 73 -224 311 -819 428 -1125 437
-1136 6 -6 18 -12 26 -12 21 0 853 309 870 322 6 6 12 19 12 30 0 22 -485
1312 -506 1346 -8 12 -24 22 -37 22 -19 0 -27 10 -44 58 -17 49 -24 57 -47 60
-23 3 -27 7 -23 25 3 12 20 118 38 235 18 116 36 217 39 223 5 7 30 0 75 -20
37 -17 74 -31 82 -31 7 0 21 16 30 35 20 42 44 45 104 14 54 -27 80 -22 101
21 29 60 24 77 -34 106 -29 14 -62 37 -73 50 -11 13 -47 33 -79 45 -108 37
-156 66 -156 94 0 37 -28 101 -82 188 l-47 78 -3 708 c-3 692 -3 709 -23 731
-11 12 -28 26 -38 32 -12 6 -119 9 -268 9 -213 -2 -249 0 -249 13 0 33 -30 46
-105 46 -70 0 -73 1 -79 25 -10 40 -76 106 -131 131 -57 27 -129 31 -186 10z
m168 -37 c40 -15 102 -79 119 -125 l17 -44 78 0 79 0 0 -125 0 -125 -380 0
-380 0 0 125 0 124 82 3 81 3 11 33 c39 116 172 176 293 131z m-499 -276 l-3
-58 -176 -3 c-133 -2 -180 -6 -188 -16 -8 -9 -10 -314 -9 -1092 l3 -1079 439
-5 438 -5 19 -50 c10 -27 19 -53 19 -57 0 -5 -222 -8 -493 -8 -410 0 -496 2
-513 14 -19 14 -19 41 -24 1178 -3 640 -1 1174 3 1188 15 48 26 50 265 50
l224 0 -4 -57z m1350 37 l22 -21 0 -666 c0 -371 -4 -663 -9 -658 -4 6 -29 43
-55 83 l-46 73 0 532 c0 401 -3 536 -12 545 -9 9 -70 12 -215 12 l-203 0 0 60
0 60 248 0 c236 0 249 -1 270 -20z m-1348 -170 l5 -35 400 -3 c367 -2 401 -1
413 15 6 9 12 27 12 40 l0 23 198 -2 197 -3 3 -497 c1 -274 -2 -498 -6 -498
-5 0 -17 9 -27 20 -9 10 -33 24 -51 30 -26 9 -34 17 -34 36 l0 24 -430 0 -430
0 0 -45 c0 -45 0 -45 35 -45 58 0 40 -18 -22 -22 -97 -7 -103 -2 -103 91 0 63
-3 80 -16 85 -9 3 -89 6 -179 6 -126 0 -165 -3 -174 -14 -8 -9 -11 -69 -9
-192 l3 -179 185 0 185 0 3 33 c2 17 7 32 11 32 5 0 25 -13 44 -29 20 -16 70
-43 112 -62 41 -18 75 -36 75 -40 0 -4 -5 -20 -10 -35 -10 -24 -4 -82 15 -171
5 -23 4 -23 -85 -23 l-90 0 0 -50 0 -50 100 0 100 0 0 -25 0 -25 -100 0 -100
0 0 -45 0 -45 109 0 109 0 6 -27 c11 -48 46 -307 46 -335 l0 -28 -425 0 -425
0 0 1065 0 1065 173 -2 172 -3 5 -35z m130 -885 l0 -65 -27 11 c-15 5 -38 7
-51 4 -23 -6 -23 -6 -5 22 l18 28 -30 -25 c-24 -20 -100 -100 -112 -119 -1 -2
-11 7 -22 20 -25 30 -26 21 -4 -26 9 -19 22 -34 27 -32 6 2 29 27 51 55 37 46
57 63 54 45 -5 -28 7 -44 51 -71 45 -28 50 -35 50 -67 l0 -35 -160 0 -160 0 0
160 0 160 160 0 160 0 0 -65z m993 -51 c44 -10 73 -46 208 -260 138 -218 163
-262 174 -312 6 -31 5 -33 -12 -25 -10 6 -120 56 -245 113 l-228 104 0 53 c0
46 -3 53 -22 58 -140 34 -333 78 -373 85 -27 4 -98 31 -157 59 -106 49 -108
51 -108 84 0 57 6 58 390 52 190 -3 358 -8 373 -11z m-1034 -33 c7 -5 11 -14
7 -19 -9 -15 -36 -4 -36 14 0 16 9 18 29 5z m124 -37 c34 -9 65 -18 69 -20 8
-5 -22 -74 -32 -74 -3 0 -30 16 -60 35 -29 19 -58 36 -64 38 -13 4 0 37 15 37
6 0 39 -7 72 -16z m198 -68 c41 -19 187 -86 324 -149 138 -63 390 -179 560
-257 171 -78 314 -146 319 -151 10 -9 -21 -89 -35 -89 -5 0 -37 13 -71 29 -35
15 -90 41 -123 56 -33 15 -105 47 -160 72 -55 25 -118 55 -140 66 -22 11 -44
22 -50 23 -5 1 -57 24 -115 51 -58 28 -146 69 -197 93 -67 32 -93 49 -97 66
-3 12 -22 36 -43 54 -35 31 -39 32 -100 27 -63 -5 -109 6 -170 41 -21 12 -21
13 -6 57 8 25 18 45 23 45 4 0 40 -15 81 -34z m459 -134 c110 -26 115 -29 118
-55 3 -21 -1 -27 -15 -26 -19 1 -245 107 -228 108 6 0 62 -12 125 -27z m-311
-28 c17 -14 31 -30 31 -34 0 -12 241 -562 255 -583 12 -18 14 -17 35 5 75 79
106 150 115 261 l7 85 76 -34 c42 -19 78 -36 80 -38 2 -2 -2 -13 -9 -24 -6
-10 -9 -30 -6 -44 6 -21 33 -37 159 -96 102 -47 153 -76 152 -86 -5 -54 -78
-502 -83 -508 -3 -4 -142 -58 -308 -121 l-302 -115 -75 137 c-134 244 -135
245 -167 484 -16 117 -46 309 -67 428 -41 237 -41 268 6 293 40 22 67 19 101
-10z m244 -174 l102 -49 -101 0 -102 -1 -17 43 c-9 23 -20 48 -23 56 -7 18 15
11 141 -49z m157 -197 c0 -50 -30 -127 -72 -183 l-23 -32 -26 59 -27 58 39 3
c39 3 39 3 39 47 l0 44 -61 3 c-54 3 -63 6 -70 26 -8 22 -8 22 96 22 l105 0 0
-47z m437 -89 c103 -48 205 -94 226 -103 34 -14 36 -18 24 -34 -12 -18 -26
-12 -237 84 -124 57 -228 108 -232 113 -9 13 0 26 17 26 8 0 98 -39 202 -86z
m343 15 c0 -4 -10 -29 -23 -57 l-23 -50 -34 14 c-19 8 -36 17 -38 19 -3 2 5
29 17 59 l22 54 40 -16 c21 -8 39 -18 39 -23z m86 -62 c41 -22 41 -22 28 -54
l-14 -33 -47 22 c-27 13 -50 24 -52 25 -8 5 22 63 33 63 6 -1 29 -11 52 -23z
m-372 -658 c11 -28 15 -54 10 -58 -10 -9 -690 -261 -703 -261 -13 0 -44 91
-35 100 5 4 90 38 189 76 99 37 252 96 340 130 88 34 165 63 171 63 5 1 18
-22 28 -50z m166 -315 c48 -126 146 -386 220 -579 186 -490 192 -507 183 -515
-10 -8 -791 -297 -817 -302 -19 -3 -3 -42 -357 892 -45 118 -100 261 -122 318
-22 56 -37 105 -34 108 3 3 187 73 408 155 222 82 405 152 408 154 15 15 33
-22 111 -231z"/>
<path d="M3134 4865 c-28 -28 -30 -42 -8 -73 29 -42 104 -18 104 34 0 27 -12
41 -43 53 -24 9 -31 8 -53 -14z m59 -29 c8 -20 -20 -43 -35 -28 -14 14 -3 42
16 42 7 0 16 -6 19 -14z"/>
<path d="M2843 4638 c6 -19 648 -19 655 0 3 9 -67 12 -328 12 -261 0 -331 -3
-327 -12z"/>
<path d="M2300 3345 c0 -647 2 -735 15 -735 13 0 15 88 15 735 0 647 -2 735
-15 735 -13 0 -15 -88 -15 -735z"/>
<path d="M4060 4041 c0 -495 0 -501 20 -501 20 0 20 5 18 497 -3 465 -4 498
-20 501 -17 3 -18 -26 -18 -497z"/>
<path d="M2552 4358 c-8 -8 -12 -65 -12 -190 0 -176 0 -178 23 -183 12 -3 96
-4 187 -3 l165 3 3 184 c2 141 -1 186 -10 193 -22 13 -342 10 -356 -4z m338
-183 l0 -165 -160 0 -160 0 0 165 0 165 160 0 160 0 0 -165z"/>
<path d="M2741 4194 c-61 -65 -63 -66 -82 -48 -20 18 -21 18 -8 -11 21 -50 27
-51 65 -14 38 37 100 127 92 135 -3 2 -33 -25 -67 -62z"/>
<path d="M3010 4285 l0 -45 430 0 430 0 0 45 0 45 -430 0 -430 0 0 -45z"/>
<path d="M3010 4140 l0 -50 335 0 335 0 0 50 0 50 -335 0 -335 0 0 -50z"/>
<path d="M2547 3154 c-13 -13 -8 -359 5 -372 18 -18 342 -17 357 2 8 9 11 69
9 192 l-3 179 -181 3 c-99 1 -183 -1 -187 -4z m343 -184 l0 -160 -160 0 -160
0 0 160 0 160 160 0 160 0 0 -160z"/>
<path d="M2744 2983 c-63 -65 -64 -66 -84 -48 -20 18 -20 18 -9 -13 20 -59 33
-58 86 7 52 65 88 121 77 121 -3 0 -35 -30 -70 -67z"/>
<path d="M4274 1907 c-2 -7 38 -121 89 -253 52 -131 138 -351 192 -489 99
-253 119 -293 131 -262 3 9 -27 99 -70 209 -207 531 -288 736 -303 771 -17 38
-30 47 -39 24z"/>
<path d="M3648 1630 c-26 -27 -30 -36 -25 -67 9 -52 38 -78 88 -78 81 0 117
88 60 146 -40 40 -82 39 -123 -1z m87 -6 c27 -11 38 -53 20 -80 -18 -28 -65
-33 -85 -9 -38 46 9 110 65 89z"/>
<path d="M3779 1395 c-14 -8 -32 -29 -39 -46 -26 -62 37 -132 103 -115 69 17
89 95 38 147 -32 32 -62 36 -102 14z m77 -38 c33 -29 28 -67 -12 -86 -59 -26
-105 56 -52 93 29 21 32 20 64 -7z"/>
</g>
</svg>
